<svg xmlns="http://www.w3.org/2000/svg" xmlns:xlink="http://www.w3.org/1999/xlink" width="500" zoomAndPan="magnify" viewBox="0 0 375 374.999991" height="500" preserveAspectRatio="xMidYMid meet" version="1.0"><defs><g/><clipPath id="9cb2059570"><path d="M 93 156.875 L 156.863281 156.875 L 156.863281 217.632812 L 93 217.632812 Z M 93 156.875 " clip-rule="nonzero"/></clipPath><clipPath id="f2cba9cff1"><path d="M 109.433594 156.875 L 109.433594 217.507812 C 109.609375 217.519531 109.789062 217.519531 109.964844 217.519531 L 139.175781 217.519531 L 139.175781 156.875 Z M 143.746094 156.875 L 139.175781 156.875 L 139.175781 217.507812 L 139.277344 217.507812 C 146.667969 217.507812 153.15625 211.476562 153.6875 204.113281 L 156.1875 170.253906 C 156.734375 162.902344 151.136719 156.875 143.746094 156.875 Z M 105.496094 156.875 C 98.109375 156.875 92.507812 162.902344 93.054688 170.265625 L 95.554688 204.125 C 96.089844 211.3125 102.285156 217.226562 109.445312 217.507812 L 109.445312 156.875 Z M 105.496094 156.875 " clip-rule="nonzero"/></clipPath></defs><g clip-path="url(#9cb2059570)"><g clip-path="url(#f2cba9cff1)"><path fill="#bc1823" d="M 93.015625 156.875 L 156.226562 156.875 L 156.226562 217.507812 L 93.015625 217.507812 Z M 93.015625 156.875 " fill-opacity="1" fill-rule="nonzero"/></g></g><g fill="#ffa500" fill-opacity="1"><g transform="translate(170.511879, 213.80732)"><g><path d="M 6.679688 -0.0703125 C 10.316406 -0.0703125 12.027344 -2.378906 12.027344 -6.257812 C 12.027344 -6.957031 11.363281 -7.449219 10.457031 -7.449219 C 9.792969 -7.449219 8.8125 -7.449219 8.8125 -6.1875 C 8.8125 -4.335938 7.9375 -2.9375 6.921875 -2.9375 C 5.035156 -2.9375 4.371094 -6.121094 4.371094 -10.210938 C 4.371094 -13.988281 5.421875 -16.75 7.097656 -16.75 C 8.355469 -16.75 8.917969 -14.894531 8.917969 -12.554688 C 9.058594 -11.714844 9.652344 -11.328125 10.59375 -11.328125 C 11.679688 -11.328125 12.308594 -11.820312 12.308594 -12.726562 C 12.308594 -16.855469 10.527344 -19.582031 7.027344 -19.582031 C 3.8125 -19.582031 1.050781 -15.769531 1.050781 -9.964844 C 1.050781 -3.742188 3.53125 -0.0703125 6.679688 -0.0703125 Z M 6.679688 -0.0703125 "/></g></g></g><g fill="#ffa500" fill-opacity="1"><g transform="translate(183.519322, 213.80732)"><g><path d="M 10.59375 0 C 11.46875 0 12.027344 -0.417969 12.027344 -1.085938 C 12.027344 -1.222656 12.027344 -1.433594 11.960938 -1.679688 C 11.855469 -1.921875 11.679688 -4.617188 11.679688 -9.964844 C 11.925781 -16.296875 10.910156 -19.546875 6.292969 -19.546875 C 2.9375 -19.546875 1.222656 -17.34375 1.222656 -14.335938 C 1.222656 -13.460938 1.851562 -12.9375 2.9375 -12.9375 C 3.847656 -12.9375 4.582031 -13.324219 4.582031 -14.160156 C 4.582031 -15.386719 5.070312 -16.714844 6.292969 -16.714844 C 7.9375 -16.714844 8.53125 -14.894531 8.53125 -11.398438 C 8.007812 -11.679688 7.203125 -12.273438 5.875 -12.273438 C 3.285156 -12.273438 1.050781 -9.964844 1.050781 -6.085938 C 1.050781 -2.238281 2.726562 -0.0703125 5.664062 -0.0703125 C 6.574219 -0.0703125 8.042969 -0.382812 8.671875 -0.945312 C 8.953125 -0.246094 9.441406 0 10.59375 0 Z M 6.257812 -3.007812 C 4.824219 -3.007812 4.089844 -4.335938 4.089844 -6.222656 C 4.089844 -8.078125 4.789062 -9.441406 6.363281 -9.441406 C 7.65625 -9.441406 8.007812 -8.042969 8.007812 -6.292969 C 8.007812 -4.300781 7.65625 -3.007812 6.257812 -3.007812 Z M 6.257812 -3.007812 "/></g></g></g><g fill="#ffa500" fill-opacity="1"><g transform="translate(196.596696, 213.80732)"><g><path d="M 2.9375 -21.503906 C 3.460938 -21.503906 3.988281 -21.644531 4.230469 -21.925781 C 4.546875 -22.238281 4.6875 -22.730469 4.6875 -23.148438 C 4.6875 -23.570312 4.582031 -23.988281 4.335938 -24.304688 C 3.707031 -25.070312 3.113281 -25.28125 2.621094 -25.28125 C 2.238281 -25.28125 1.886719 -25.105469 1.609375 -24.933594 C 1.257812 -24.6875 1.015625 -24.128906 1.015625 -23.570312 C 1.015625 -23.113281 1.152344 -22.625 1.398438 -22.167969 C 1.714844 -21.679688 2.34375 -21.503906 2.9375 -21.503906 Z M 2.9375 0 C 4.652344 0 4.753906 -0.910156 4.753906 -1.816406 C 4.753906 -1.816406 4.753906 -3.078125 4.6875 -3.777344 C 4.6875 -4.71875 4.652344 -5.628906 4.652344 -6.46875 L 4.6875 -9.265625 L 4.6875 -14.617188 C 4.6875 -15.664062 4.824219 -17.03125 4.824219 -18.148438 C 4.824219 -18.8125 4.652344 -19.652344 2.867188 -19.652344 C 1.117188 -19.652344 1.050781 -18.671875 1.050781 -17.796875 C 1.050781 -16.785156 1.1875 -15.5625 1.1875 -14.617188 C 1.222656 -12.167969 1.222656 -10.527344 1.222656 -8.355469 C 1.222656 -6.921875 1.222656 -5.421875 1.1875 -3.777344 C 1.152344 -3.078125 1.152344 -1.816406 1.152344 -1.816406 C 1.152344 -0.628906 1.785156 0 2.9375 0 Z M 2.9375 0 "/></g></g></g><g fill="#ffa500" fill-opacity="1"><g transform="translate(202.471023, 213.80732)"><g><path d="M 2.484375 0.28125 C 3.320312 0.28125 3.847656 -0.488281 4.089844 -0.945312 C 4.371094 -1.503906 5.351562 -4.335938 6.085938 -5.804688 C 6.15625 -5.945312 6.222656 -6.085938 6.292969 -6.085938 C 6.363281 -6.085938 6.433594 -5.945312 6.503906 -5.804688 C 7.238281 -4.335938 8.21875 -1.503906 8.496094 -0.945312 C 8.742188 -0.488281 9.265625 0.28125 10.105469 0.28125 C 11.191406 0.28125 12.097656 -0.316406 12.203125 -0.945312 C 12.308594 -1.503906 11.820312 -2.308594 10.945312 -4.019531 L 8.425781 -8.988281 C 8.21875 -9.511719 8.355469 -9.859375 8.496094 -10.175781 L 10.734375 -15.28125 C 11.539062 -17.03125 11.992188 -17.867188 11.855469 -18.394531 C 11.714844 -19.023438 10.769531 -19.582031 9.6875 -19.511719 C 8.847656 -19.476562 8.355469 -18.671875 8.148438 -18.21875 C 7.902344 -17.625 7.132812 -14.757812 6.46875 -13.253906 C 6.363281 -12.972656 6.257812 -12.9375 6.121094 -13.253906 C 5.453125 -14.757812 4.6875 -17.625 4.441406 -18.21875 C 4.230469 -18.671875 3.742188 -19.476562 2.902344 -19.511719 C 1.816406 -19.582031 0.875 -19.023438 0.734375 -18.394531 C 0.59375 -17.867188 1.050781 -17.03125 1.816406 -15.28125 L 4.089844 -10.175781 C 4.195312 -9.859375 4.371094 -9.511719 4.160156 -8.988281 L 1.644531 -4.019531 C 0.769531 -2.308594 0.28125 -1.503906 0.382812 -0.945312 C 0.488281 -0.316406 1.398438 0.28125 2.484375 0.28125 Z M 2.484375 0.28125 "/></g></g></g><g fill="#ffa500" fill-opacity="1"><g transform="translate(215.023902, 213.80732)"><g><path d="M 10.59375 0 C 11.46875 0 12.027344 -0.417969 12.027344 -1.085938 C 12.027344 -1.222656 12.027344 -1.433594 11.960938 -1.679688 C 11.855469 -1.921875 11.679688 -4.617188 11.679688 -9.964844 C 11.925781 -16.296875 10.910156 -19.546875 6.292969 -19.546875 C 2.9375 -19.546875 1.222656 -17.34375 1.222656 -14.335938 C 1.222656 -13.460938 1.851562 -12.9375 2.9375 -12.9375 C 3.847656 -12.9375 4.582031 -13.324219 4.582031 -14.160156 C 4.582031 -15.386719 5.070312 -16.714844 6.292969 -16.714844 C 7.9375 -16.714844 8.53125 -14.894531 8.53125 -11.398438 C 8.007812 -11.679688 7.203125 -12.273438 5.875 -12.273438 C 3.285156 -12.273438 1.050781 -9.964844 1.050781 -6.085938 C 1.050781 -2.238281 2.726562 -0.0703125 5.664062 -0.0703125 C 6.574219 -0.0703125 8.042969 -0.382812 8.671875 -0.945312 C 8.953125 -0.246094 9.441406 0 10.59375 0 Z M 6.257812 -3.007812 C 4.824219 -3.007812 4.089844 -4.335938 4.089844 -6.222656 C 4.089844 -8.078125 4.789062 -9.441406 6.363281 -9.441406 C 7.65625 -9.441406 8.007812 -8.042969 8.007812 -6.292969 C 8.007812 -4.300781 7.65625 -3.007812 6.257812 -3.007812 Z M 6.257812 -3.007812 "/></g></g></g><g fill="#bc1823" fill-opacity="1"><g transform="translate(170.511879, 181.611862)"><g><path d="M 4.351562 0.222656 C 9.121094 0.222656 10.460938 -4.492188 10.460938 -8.953125 C 10.460938 -13.949219 8.230469 -20 4.242188 -20 C 2.121094 -20 0.835938 -19.835938 0.835938 -17.769531 C 0.835938 -16.792969 0.949219 -15.707031 0.949219 -14.8125 C 0.976562 -12.332031 1.003906 -10.210938 1.003906 -8.007812 C 1.003906 -6.554688 0.976562 -5.050781 0.949219 -3.375 C 0.921875 -2.648438 0.921875 -1.394531 0.921875 -1.394531 C 0.921875 -0.445312 1.3125 -0.277344 2.148438 -0.0273438 C 2.984375 0.222656 3.347656 0.222656 4.351562 0.222656 Z M 4.910156 -2.453125 C 4.046875 -2.453125 3.683594 -2.984375 3.683594 -3.738281 L 3.683594 -15.484375 C 3.683594 -16.847656 3.710938 -17.492188 4.40625 -17.492188 C 5.746094 -17.492188 7.753906 -14.085938 7.753906 -8.816406 C 7.753906 -4.992188 6.613281 -2.453125 4.910156 -2.453125 Z M 4.910156 -2.453125 "/></g></g></g><g fill="#bc1823" fill-opacity="1"><g transform="translate(181.69742, 181.611862)"><g><path d="M 8.117188 -4.242188 C 7.390625 -4.40625 6.75 -4.269531 6.582031 -3.597656 C 6.472656 -3.125 5.996094 -2.34375 5.214844 -2.34375 C 4.433594 -2.34375 3.738281 -4.101562 3.542969 -6.582031 C 4.855469 -6.417969 6.667969 -6.417969 7.449219 -6.554688 C 8.871094 -6.835938 9.261719 -7.644531 9.261719 -8.789062 C 9.261719 -13.585938 7.839844 -15.621094 5.328125 -15.621094 C 2.761719 -15.621094 0.835938 -12.582031 0.835938 -7.949219 C 0.835938 -2.984375 2.121094 -0.0546875 5.050781 -0.0546875 C 7.449219 -0.0546875 8.703125 -1.476562 9.066406 -2.84375 C 9.261719 -3.542969 8.953125 -4.046875 8.117188 -4.242188 Z M 5.1875 -13.363281 C 6.136719 -13.363281 6.613281 -12.078125 6.75 -10.628906 C 6.917969 -8.816406 6.5 -8.789062 6.082031 -8.730469 C 5.496094 -8.675781 4.269531 -8.703125 3.488281 -8.757812 C 3.597656 -11.464844 4.351562 -13.363281 5.1875 -13.363281 Z M 5.1875 -13.363281 "/></g></g></g><g fill="#bc1823" fill-opacity="1"><g transform="translate(191.795091, 181.611862)"><g><path d="M 2.34375 0.25 C 3.65625 0.25 3.738281 -0.445312 3.738281 -1.394531 C 3.738281 -1.394531 3.738281 -2.648438 3.710938 -3.375 C 3.683594 -4.324219 3.683594 -5.214844 3.65625 -6.082031 L 3.683594 -9.375 L 3.710938 -14.8125 C 3.710938 -15.902344 3.820312 -17.269531 3.820312 -18.382812 C 3.820312 -19.109375 3.683594 -19.722656 2.257812 -19.722656 C 0.894531 -19.722656 0.835938 -18.941406 0.835938 -18.050781 C 0.835938 -17.015625 0.949219 -15.789062 0.949219 -14.8125 C 0.976562 -12.332031 1.003906 -10.210938 1.003906 -8.007812 C 1.003906 -6.554688 0.976562 -5.050781 0.949219 -3.375 C 0.921875 -2.648438 0.921875 -1.394531 0.921875 -1.394531 C 0.921875 -0.445312 1.253906 0.25 2.34375 0.25 Z M 2.34375 0.25 "/></g></g></g><g fill="#bc1823" fill-opacity="1"><g transform="translate(196.453409, 181.611862)"><g><path d="M 2.34375 -16.792969 C 2.734375 -16.792969 3.207031 -16.960938 3.488281 -17.183594 C 3.878906 -17.492188 5.105469 -18.941406 5.691406 -19.75 C 5.832031 -19.945312 5.886719 -20.113281 5.886719 -20.28125 C 5.886719 -20.726562 5.328125 -20.921875 4.769531 -20.921875 C 4.046875 -20.921875 3.488281 -21.035156 2.957031 -20.085938 C 2.425781 -19.164062 2.289062 -18.996094 2.0625 -18.550781 C 1.8125 -18.132812 1.671875 -17.714844 1.671875 -17.378906 C 1.671875 -17.15625 1.757812 -16.960938 1.925781 -16.878906 C 2.035156 -16.820312 2.175781 -16.792969 2.34375 -16.792969 Z M 2.34375 0 C 3.710938 0 3.792969 -0.726562 3.792969 -1.449219 C 3.792969 -1.449219 3.792969 -2.453125 3.738281 -3.011719 C 3.738281 -3.765625 3.710938 -4.492188 3.710938 -5.160156 L 3.738281 -7.390625 L 3.738281 -11.660156 C 3.738281 -12.496094 3.851562 -13.585938 3.851562 -14.476562 C 3.851562 -15.007812 3.710938 -15.679688 2.289062 -15.679688 C 0.894531 -15.679688 0.835938 -14.898438 0.835938 -14.199219 C 0.835938 -13.390625 0.949219 -12.414062 0.949219 -11.660156 C 0.976562 -9.707031 0.976562 -8.398438 0.976562 -6.667969 C 0.976562 -5.523438 0.976562 -4.324219 0.949219 -3.011719 C 0.921875 -2.453125 0.921875 -1.449219 0.921875 -1.449219 C 0.921875 -0.503906 1.421875 0 2.34375 0 Z M 2.34375 0 "/></g></g></g><g fill="#bc1823" fill-opacity="1"><g transform="translate(201.139622, 181.611862)"><g><path d="M 5.328125 -0.0546875 C 8.230469 -0.0546875 9.597656 -1.898438 9.597656 -4.992188 C 9.597656 -5.550781 9.066406 -5.941406 8.339844 -5.941406 C 7.8125 -5.941406 7.03125 -5.941406 7.03125 -4.9375 C 7.03125 -3.460938 6.332031 -2.34375 5.523438 -2.34375 C 4.015625 -2.34375 3.488281 -4.882812 3.488281 -8.144531 C 3.488281 -11.160156 4.324219 -13.363281 5.664062 -13.363281 C 6.667969 -13.363281 7.113281 -11.882812 7.113281 -10.015625 C 7.226562 -9.34375 7.699219 -9.039062 8.453125 -9.039062 C 9.316406 -9.039062 9.820312 -9.429688 9.820312 -10.152344 C 9.820312 -13.445312 8.398438 -15.621094 5.605469 -15.621094 C 3.039062 -15.621094 0.835938 -12.582031 0.835938 -7.949219 C 0.835938 -2.984375 2.816406 -0.0546875 5.328125 -0.0546875 Z M 5.328125 -0.0546875 "/></g></g></g><g fill="#bc1823" fill-opacity="1"><g transform="translate(211.516231, 181.611862)"><g><path d="M 2.34375 -17.15625 C 2.761719 -17.15625 3.179688 -17.269531 3.375 -17.492188 C 3.625 -17.742188 3.738281 -18.132812 3.738281 -18.46875 C 3.738281 -18.800781 3.65625 -19.136719 3.460938 -19.386719 C 2.957031 -20 2.484375 -20.167969 2.09375 -20.167969 C 1.785156 -20.167969 1.507812 -20.03125 1.285156 -19.890625 C 1.003906 -19.695312 0.808594 -19.25 0.808594 -18.800781 C 0.808594 -18.441406 0.921875 -18.050781 1.117188 -17.6875 C 1.367188 -17.296875 1.867188 -17.15625 2.34375 -17.15625 Z M 2.34375 0 C 3.710938 0 3.792969 -0.726562 3.792969 -1.449219 C 3.792969 -1.449219 3.792969 -2.453125 3.738281 -3.011719 C 3.738281 -3.765625 3.710938 -4.492188 3.710938 -5.160156 L 3.738281 -7.390625 L 3.738281 -11.660156 C 3.738281 -12.496094 3.851562 -13.585938 3.851562 -14.476562 C 3.851562 -15.007812 3.710938 -15.679688 2.289062 -15.679688 C 0.894531 -15.679688 0.835938 -14.898438 0.835938 -14.199219 C 0.835938 -13.390625 0.949219 -12.414062 0.949219 -11.660156 C 0.976562 -9.707031 0.976562 -8.398438 0.976562 -6.667969 C 0.976562 -5.523438 0.976562 -4.324219 0.949219 -3.011719 C 0.921875 -2.453125 0.921875 -1.449219 0.921875 -1.449219 C 0.921875 -0.503906 1.421875 0 2.34375 0 Z M 2.34375 0 "/></g></g></g><g fill="#bc1823" fill-opacity="1"><g transform="translate(216.202445, 181.611862)"><g><path d="M 8.453125 0 C 9.148438 0 9.597656 -0.335938 9.597656 -0.863281 C 9.597656 -0.976562 9.597656 -1.144531 9.539062 -1.339844 C 9.457031 -1.535156 9.316406 -3.683594 9.316406 -7.949219 C 9.511719 -13 8.703125 -15.59375 5.019531 -15.59375 C 2.34375 -15.59375 0.976562 -13.835938 0.976562 -11.4375 C 0.976562 -10.738281 1.476562 -10.320312 2.34375 -10.320312 C 3.070312 -10.320312 3.65625 -10.628906 3.65625 -11.296875 C 3.65625 -12.273438 4.046875 -13.335938 5.019531 -13.335938 C 6.332031 -13.335938 6.808594 -11.882812 6.808594 -9.09375 C 6.386719 -9.316406 5.746094 -9.792969 4.6875 -9.792969 C 2.621094 -9.792969 0.835938 -7.949219 0.835938 -4.855469 C 0.835938 -1.785156 2.175781 -0.0546875 4.519531 -0.0546875 C 5.246094 -0.0546875 6.417969 -0.308594 6.917969 -0.753906 C 7.140625 -0.195312 7.53125 0 8.453125 0 Z M 4.992188 -2.398438 C 3.851562 -2.398438 3.265625 -3.460938 3.265625 -4.964844 C 3.265625 -6.445312 3.820312 -7.53125 5.078125 -7.53125 C 6.109375 -7.53125 6.386719 -6.417969 6.386719 -5.019531 C 6.386719 -3.429688 6.109375 -2.398438 4.992188 -2.398438 Z M 4.992188 -2.398438 "/></g></g></g><g fill="#bc1823" fill-opacity="1"><g transform="translate(226.634842, 181.611862)"><g/></g></g><g fill="#bc1823" fill-opacity="1"><g transform="translate(232.771548, 181.611862)"><g><path d="M 2.398438 0.0273438 C 3.320312 0.0273438 3.597656 -0.472656 3.597656 -1.617188 C 3.515625 -3.65625 3.460938 -5.996094 3.460938 -7.28125 C 3.460938 -11.660156 4.210938 -13.390625 5.664062 -13.390625 C 7.28125 -13.390625 7.644531 -11.019531 7.585938 -7.28125 C 7.558594 -5.523438 7.585938 -2.648438 7.585938 -1.449219 C 7.585938 -0.195312 8.144531 0.0273438 9.066406 0.0273438 C 10.183594 0.0273438 10.488281 -0.472656 10.460938 -1.617188 C 10.433594 -2.929688 10.265625 -7.390625 10.265625 -8.621094 C 10.265625 -13.167969 9.09375 -15.621094 6.082031 -15.621094 C 5.019531 -15.621094 3.792969 -14.980469 3.402344 -14.339844 C 3.179688 -15.09375 2.707031 -15.707031 1.785156 -15.707031 C 1.089844 -15.707031 0.613281 -15.371094 0.640625 -14.839844 L 0.726562 -12.945312 C 0.753906 -11.660156 0.78125 -10.40625 0.78125 -9.289062 C 0.78125 -7.644531 0.726562 -5.71875 0.726562 -3.152344 C 0.699219 -2.425781 0.726562 -1.449219 0.726562 -1.449219 C 0.726562 -0.195312 1.285156 0.0273438 2.398438 0.0273438 Z M 2.398438 0.0273438 "/></g></g></g><g fill="#bc1823" fill-opacity="1"><g transform="translate(243.873406, 181.611862)"><g><path d="M 8.453125 0 C 9.148438 0 9.597656 -0.335938 9.597656 -0.863281 C 9.597656 -0.976562 9.597656 -1.144531 9.539062 -1.339844 C 9.457031 -1.535156 9.316406 -3.683594 9.316406 -7.949219 C 9.511719 -13 8.703125 -15.59375 5.019531 -15.59375 C 2.34375 -15.59375 0.976562 -13.835938 0.976562 -11.4375 C 0.976562 -10.738281 1.476562 -10.320312 2.34375 -10.320312 C 3.070312 -10.320312 3.65625 -10.628906 3.65625 -11.296875 C 3.65625 -12.273438 4.046875 -13.335938 5.019531 -13.335938 C 6.332031 -13.335938 6.808594 -11.882812 6.808594 -9.09375 C 6.386719 -9.316406 5.746094 -9.792969 4.6875 -9.792969 C 2.621094 -9.792969 0.835938 -7.949219 0.835938 -4.855469 C 0.835938 -1.785156 2.175781 -0.0546875 4.519531 -0.0546875 C 5.246094 -0.0546875 6.417969 -0.308594 6.917969 -0.753906 C 7.140625 -0.195312 7.53125 0 8.453125 0 Z M 4.992188 -2.398438 C 3.851562 -2.398438 3.265625 -3.460938 3.265625 -4.964844 C 3.265625 -6.445312 3.820312 -7.53125 5.078125 -7.53125 C 6.109375 -7.53125 6.386719 -6.417969 6.386719 -5.019531 C 6.386719 -3.429688 6.109375 -2.398438 4.992188 -2.398438 Z M 4.992188 -2.398438 "/></g></g></g><path fill="#ffa500" d="M 140.28125 197.265625 C 137.121094 211.222656 115.109375 211.152344 110.21875 198.066406 C 105.976562 186.753906 118.335938 170.777344 123.308594 164.992188 C 124.355469 163.773438 126.230469 163.773438 127.289062 164.992188 C 131.726562 170.144531 143.265625 184.074219 140.28125 197.265625 Z M 140.28125 197.265625 " fill-opacity="1" fill-rule="nonzero"/><path fill="#bc1823" d="M 136.589844 188.171875 C 136.886719 188.117188 138.394531 191.363281 137.835938 195.144531 C 137.664062 196.289062 137.277344 198.691406 135.246094 200.710938 C 133.628906 202.316406 131.789062 202.878906 130.914062 203.074219 C 132.84375 201.847656 135.011719 200 136.15625 197.210938 C 137.988281 192.734375 136.238281 188.234375 136.589844 188.171875 Z M 136.589844 188.171875 " fill-opacity="1" fill-rule="nonzero"/></svg>