<svg xmlns="http://www.w3.org/2000/svg" xmlns:xlink="http://www.w3.org/1999/xlink" width="500" zoomAndPan="magnify" viewBox="0 0 375 374.999991" height="500" preserveAspectRatio="xMidYMid meet" version="1.0"><defs><g/><clipPath id="c7d6435a37"><path d="M 139 74.96875 L 236 74.96875 L 236 167.234375 L 139 167.234375 Z M 139 74.96875 " clip-rule="nonzero"/></clipPath><clipPath id="6810210df5"><path d="M 164.0625 74.96875 L 164.0625 167.042969 C 164.332031 167.0625 164.601562 167.0625 164.871094 167.0625 L 209.230469 167.0625 L 209.230469 74.96875 Z M 216.171875 74.96875 L 209.230469 74.96875 L 209.230469 167.042969 L 209.386719 167.042969 C 220.605469 167.042969 230.457031 157.886719 231.265625 146.703125 L 235.066406 95.289062 C 235.894531 84.125 227.390625 74.96875 216.171875 74.96875 Z M 158.085938 74.96875 C 146.867188 74.96875 138.363281 84.125 139.195312 95.308594 L 142.992188 146.722656 C 143.800781 157.636719 153.207031 166.617188 164.082031 167.042969 L 164.082031 74.96875 Z M 158.085938 74.96875 " clip-rule="nonzero"/></clipPath></defs><g clip-path="url(#c7d6435a37)"><g clip-path="url(#6810210df5)"><path fill="#bc1823" d="M 139.136719 74.96875 L 235.121094 74.96875 L 235.121094 167.042969 L 139.136719 167.042969 Z M 139.136719 74.96875 " fill-opacity="1" fill-rule="nonzero"/></g></g><path fill="#ffa500" d="M 210.042969 135.066406 C 205.496094 155.164062 173.796875 155.0625 166.753906 136.222656 C 160.648438 119.933594 178.449219 96.921875 185.605469 88.59375 C 187.113281 86.839844 189.816406 86.839844 191.335938 88.59375 C 197.726562 96.015625 214.34375 116.074219 210.042969 135.066406 Z M 210.042969 135.066406 " fill-opacity="1" fill-rule="nonzero"/><path fill="#bc1823" d="M 204.730469 121.972656 C 205.160156 121.894531 207.328125 126.570312 206.523438 132.015625 C 206.277344 133.664062 205.71875 137.121094 202.792969 140.03125 C 200.46875 142.34375 197.816406 143.148438 196.558594 143.433594 C 199.339844 141.667969 202.457031 139.003906 204.105469 134.988281 C 206.742188 128.546875 204.222656 122.0625 204.730469 121.972656 Z M 204.730469 121.972656 " fill-opacity="1" fill-rule="nonzero"/><g fill="#ffffff" fill-opacity="1"><g transform="translate(125.648711, 216.118059)"><g><path d="M 6.425781 0.328125 C 13.464844 0.328125 15.441406 -6.628906 15.441406 -13.21875 C 15.441406 -20.589844 12.148438 -29.527344 6.257812 -29.527344 C 3.128906 -29.527344 1.234375 -29.28125 1.234375 -26.230469 C 1.234375 -24.789062 1.398438 -23.183594 1.398438 -21.867188 C 1.441406 -18.203125 1.484375 -15.070312 1.484375 -11.820312 C 1.484375 -9.675781 1.441406 -7.453125 1.398438 -4.984375 C 1.359375 -3.914062 1.359375 -2.058594 1.359375 -2.058594 C 1.359375 -0.660156 1.933594 -0.410156 3.171875 -0.0429688 C 4.40625 0.328125 4.941406 0.328125 6.425781 0.328125 Z M 7.246094 -3.625 C 5.972656 -3.625 5.4375 -4.40625 5.4375 -5.519531 L 5.4375 -22.855469 C 5.4375 -24.871094 5.476562 -25.820312 6.507812 -25.820312 C 8.484375 -25.820312 11.449219 -20.796875 11.449219 -13.011719 C 11.449219 -7.371094 9.761719 -3.625 7.246094 -3.625 Z M 7.246094 -3.625 "/></g></g></g><g fill="#ffffff" fill-opacity="1"><g transform="translate(142.161408, 216.118059)"><g><path d="M 11.984375 -6.257812 C 10.914062 -6.507812 9.964844 -6.300781 9.71875 -5.3125 C 9.554688 -4.613281 8.855469 -3.460938 7.699219 -3.460938 C 6.546875 -3.460938 5.519531 -6.054688 5.230469 -9.71875 C 7.164062 -9.472656 9.84375 -9.472656 10.996094 -9.675781 C 13.09375 -10.089844 13.671875 -11.285156 13.671875 -12.972656 C 13.671875 -20.054688 11.570312 -23.0625 7.867188 -23.0625 C 4.078125 -23.0625 1.234375 -18.574219 1.234375 -11.738281 C 1.234375 -4.40625 3.128906 -0.0820312 7.453125 -0.0820312 C 10.996094 -0.0820312 12.847656 -2.183594 13.382812 -4.199219 C 13.671875 -5.230469 13.21875 -5.972656 11.984375 -6.257812 Z M 7.660156 -19.726562 C 9.058594 -19.726562 9.761719 -17.832031 9.964844 -15.691406 C 10.210938 -13.011719 9.59375 -12.972656 8.976562 -12.890625 C 8.113281 -12.808594 6.300781 -12.847656 5.148438 -12.929688 C 5.3125 -16.925781 6.425781 -19.726562 7.660156 -19.726562 Z M 7.660156 -19.726562 "/></g></g></g><g fill="#ffffff" fill-opacity="1"><g transform="translate(157.068136, 216.118059)"><g><path d="M 3.460938 0.371094 C 5.394531 0.371094 5.519531 -0.660156 5.519531 -2.058594 C 5.519531 -2.058594 5.519531 -3.914062 5.476562 -4.984375 C 5.4375 -6.382812 5.4375 -7.699219 5.394531 -8.976562 L 5.4375 -13.835938 L 5.476562 -21.867188 C 5.476562 -23.472656 5.640625 -25.492188 5.640625 -27.136719 C 5.640625 -28.207031 5.4375 -29.113281 3.335938 -29.113281 C 1.316406 -29.113281 1.234375 -27.960938 1.234375 -26.644531 C 1.234375 -25.121094 1.398438 -23.308594 1.398438 -21.867188 C 1.441406 -18.203125 1.484375 -15.070312 1.484375 -11.820312 C 1.484375 -9.675781 1.441406 -7.453125 1.398438 -4.984375 C 1.359375 -3.914062 1.359375 -2.058594 1.359375 -2.058594 C 1.359375 -0.660156 1.851562 0.371094 3.460938 0.371094 Z M 3.460938 0.371094 "/></g></g></g><g fill="#ffffff" fill-opacity="1"><g transform="translate(163.944997, 216.118059)"><g><path d="M 3.460938 -24.789062 C 4.035156 -24.789062 4.734375 -25.039062 5.148438 -25.367188 C 5.722656 -25.820312 7.535156 -27.960938 8.402344 -29.15625 C 8.605469 -29.445312 8.6875 -29.691406 8.6875 -29.9375 C 8.6875 -30.597656 7.867188 -30.886719 7.042969 -30.886719 C 5.972656 -30.886719 5.148438 -31.050781 4.363281 -29.648438 C 3.582031 -28.292969 3.375 -28.042969 3.046875 -27.386719 C 2.675781 -26.765625 2.472656 -26.148438 2.472656 -25.65625 C 2.472656 -25.324219 2.59375 -25.039062 2.839844 -24.914062 C 3.007812 -24.832031 3.210938 -24.789062 3.460938 -24.789062 Z M 3.460938 0 C 5.476562 0 5.601562 -1.070312 5.601562 -2.140625 C 5.601562 -2.140625 5.601562 -3.625 5.519531 -4.449219 C 5.519531 -5.558594 5.476562 -6.628906 5.476562 -7.617188 L 5.519531 -10.914062 L 5.519531 -17.214844 C 5.519531 -18.449219 5.683594 -20.054688 5.683594 -21.371094 C 5.683594 -22.15625 5.476562 -23.144531 3.375 -23.144531 C 1.316406 -23.144531 1.234375 -21.992188 1.234375 -20.960938 C 1.234375 -19.765625 1.398438 -18.324219 1.398438 -17.214844 C 1.441406 -14.332031 1.441406 -12.394531 1.441406 -9.84375 C 1.441406 -8.152344 1.441406 -6.382812 1.398438 -4.449219 C 1.359375 -3.625 1.359375 -2.140625 1.359375 -2.140625 C 1.359375 -0.742188 2.101562 0 3.460938 0 Z M 3.460938 0 "/></g></g></g><g fill="#ffffff" fill-opacity="1"><g transform="translate(170.863036, 216.118059)"><g><path d="M 7.867188 -0.0820312 C 12.148438 -0.0820312 14.167969 -2.800781 14.167969 -7.371094 C 14.167969 -8.195312 13.382812 -8.769531 12.3125 -8.769531 C 11.53125 -8.769531 10.378906 -8.769531 10.378906 -7.289062 C 10.378906 -5.105469 9.347656 -3.460938 8.152344 -3.460938 C 5.929688 -3.460938 5.148438 -7.207031 5.148438 -12.023438 C 5.148438 -16.472656 6.382812 -19.726562 8.359375 -19.726562 C 9.84375 -19.726562 10.5 -17.542969 10.5 -14.785156 C 10.664062 -13.796875 11.367188 -13.34375 12.476562 -13.34375 C 13.753906 -13.34375 14.496094 -13.917969 14.496094 -14.988281 C 14.496094 -19.847656 12.394531 -23.0625 8.277344 -23.0625 C 4.488281 -23.0625 1.234375 -18.574219 1.234375 -11.738281 C 1.234375 -4.40625 4.160156 -0.0820312 7.867188 -0.0820312 Z M 7.867188 -0.0820312 "/></g></g></g><g fill="#ffffff" fill-opacity="1"><g transform="translate(186.181549, 216.118059)"><g><path d="M 3.460938 -25.324219 C 4.078125 -25.324219 4.695312 -25.492188 4.984375 -25.820312 C 5.351562 -26.191406 5.519531 -26.765625 5.519531 -27.261719 C 5.519531 -27.753906 5.394531 -28.25 5.105469 -28.621094 C 4.363281 -29.527344 3.664062 -29.773438 3.089844 -29.773438 C 2.636719 -29.773438 2.222656 -29.566406 1.894531 -29.363281 C 1.484375 -29.074219 1.195312 -28.414062 1.195312 -27.753906 C 1.195312 -27.21875 1.359375 -26.644531 1.648438 -26.109375 C 2.019531 -25.53125 2.757812 -25.324219 3.460938 -25.324219 Z M 3.460938 0 C 5.476562 0 5.601562 -1.070312 5.601562 -2.140625 C 5.601562 -2.140625 5.601562 -3.625 5.519531 -4.449219 C 5.519531 -5.558594 5.476562 -6.628906 5.476562 -7.617188 L 5.519531 -10.914062 L 5.519531 -17.214844 C 5.519531 -18.449219 5.683594 -20.054688 5.683594 -21.371094 C 5.683594 -22.15625 5.476562 -23.144531 3.375 -23.144531 C 1.316406 -23.144531 1.234375 -21.992188 1.234375 -20.960938 C 1.234375 -19.765625 1.398438 -18.324219 1.398438 -17.214844 C 1.441406 -14.332031 1.441406 -12.394531 1.441406 -9.84375 C 1.441406 -8.152344 1.441406 -6.382812 1.398438 -4.449219 C 1.359375 -3.625 1.359375 -2.140625 1.359375 -2.140625 C 1.359375 -0.742188 2.101562 0 3.460938 0 Z M 3.460938 0 "/></g></g></g><g fill="#ffffff" fill-opacity="1"><g transform="translate(193.099588, 216.118059)"><g><path d="M 12.476562 0 C 13.507812 0 14.167969 -0.496094 14.167969 -1.277344 C 14.167969 -1.441406 14.167969 -1.6875 14.082031 -1.976562 C 13.960938 -2.265625 13.753906 -5.4375 13.753906 -11.738281 C 14.042969 -19.191406 12.847656 -23.019531 7.414062 -23.019531 C 3.460938 -23.019531 1.441406 -20.425781 1.441406 -16.882812 C 1.441406 -15.855469 2.183594 -15.238281 3.460938 -15.238281 C 4.53125 -15.238281 5.394531 -15.691406 5.394531 -16.679688 C 5.394531 -18.121094 5.972656 -19.683594 7.414062 -19.683594 C 9.347656 -19.683594 10.046875 -17.542969 10.046875 -13.425781 C 9.429688 -13.753906 8.484375 -14.453125 6.917969 -14.453125 C 3.871094 -14.453125 1.234375 -11.738281 1.234375 -7.164062 C 1.234375 -2.636719 3.210938 -0.0820312 6.671875 -0.0820312 C 7.742188 -0.0820312 9.472656 -0.453125 10.210938 -1.113281 C 10.542969 -0.289062 11.117188 0 12.476562 0 Z M 7.371094 -3.542969 C 5.683594 -3.542969 4.816406 -5.105469 4.816406 -7.332031 C 4.816406 -9.511719 5.640625 -11.117188 7.496094 -11.117188 C 9.019531 -11.117188 9.429688 -9.472656 9.429688 -7.414062 C 9.429688 -5.066406 9.019531 -3.542969 7.371094 -3.542969 Z M 7.371094 -3.542969 "/></g></g></g><g fill="#ffffff" fill-opacity="1"><g transform="translate(208.500462, 216.118059)"><g/></g></g><g fill="#ffffff" fill-opacity="1"><g transform="translate(217.559802, 216.118059)"><g><path d="M 3.542969 0.0429688 C 4.902344 0.0429688 5.3125 -0.699219 5.3125 -2.386719 C 5.1875 -5.394531 5.105469 -8.855469 5.105469 -10.75 C 5.105469 -17.214844 6.21875 -19.765625 8.359375 -19.765625 C 10.75 -19.765625 11.285156 -16.265625 11.199219 -10.75 C 11.160156 -8.152344 11.199219 -3.914062 11.199219 -2.140625 C 11.199219 -0.289062 12.023438 0.0429688 13.382812 0.0429688 C 15.03125 0.0429688 15.484375 -0.699219 15.441406 -2.386719 C 15.402344 -4.324219 15.15625 -10.914062 15.15625 -12.726562 C 15.15625 -19.4375 13.425781 -23.0625 8.976562 -23.0625 C 7.414062 -23.0625 5.601562 -22.113281 5.023438 -21.167969 C 4.695312 -22.277344 3.996094 -23.183594 2.636719 -23.183594 C 1.605469 -23.183594 0.90625 -22.691406 0.945312 -21.90625 L 1.070312 -19.109375 C 1.113281 -17.214844 1.152344 -15.359375 1.152344 -13.714844 C 1.152344 -11.285156 1.070312 -8.441406 1.070312 -4.652344 C 1.03125 -3.582031 1.070312 -2.140625 1.070312 -2.140625 C 1.070312 -0.289062 1.894531 0.0429688 3.542969 0.0429688 Z M 3.542969 0.0429688 "/></g></g></g><g fill="#ffffff" fill-opacity="1"><g transform="translate(233.948967, 216.118059)"><g><path d="M 12.476562 0 C 13.507812 0 14.167969 -0.496094 14.167969 -1.277344 C 14.167969 -1.441406 14.167969 -1.6875 14.082031 -1.976562 C 13.960938 -2.265625 13.753906 -5.4375 13.753906 -11.738281 C 14.042969 -19.191406 12.847656 -23.019531 7.414062 -23.019531 C 3.460938 -23.019531 1.441406 -20.425781 1.441406 -16.882812 C 1.441406 -15.855469 2.183594 -15.238281 3.460938 -15.238281 C 4.53125 -15.238281 5.394531 -15.691406 5.394531 -16.679688 C 5.394531 -18.121094 5.972656 -19.683594 7.414062 -19.683594 C 9.347656 -19.683594 10.046875 -17.542969 10.046875 -13.425781 C 9.429688 -13.753906 8.484375 -14.453125 6.917969 -14.453125 C 3.871094 -14.453125 1.234375 -11.738281 1.234375 -7.164062 C 1.234375 -2.636719 3.210938 -0.0820312 6.671875 -0.0820312 C 7.742188 -0.0820312 9.472656 -0.453125 10.210938 -1.113281 C 10.542969 -0.289062 11.117188 0 12.476562 0 Z M 7.371094 -3.542969 C 5.683594 -3.542969 4.816406 -5.105469 4.816406 -7.332031 C 4.816406 -9.511719 5.640625 -11.117188 7.496094 -11.117188 C 9.019531 -11.117188 9.429688 -9.472656 9.429688 -7.414062 C 9.429688 -5.066406 9.019531 -3.542969 7.371094 -3.542969 Z M 7.371094 -3.542969 "/></g></g></g><g fill="#bc1823" fill-opacity="1"><g transform="translate(142.918951, 260.069648)"><g><path d="M 10.339844 -0.109375 C 15.96875 -0.109375 18.621094 -3.679688 18.621094 -9.691406 C 18.621094 -10.773438 17.59375 -11.53125 16.1875 -11.53125 C 15.15625 -11.53125 13.640625 -11.53125 13.640625 -9.582031 C 13.640625 -6.710938 12.289062 -4.546875 10.71875 -4.546875 C 7.796875 -4.546875 6.765625 -9.472656 6.765625 -15.808594 C 6.765625 -21.652344 8.390625 -25.929688 10.988281 -25.929688 C 12.9375 -25.929688 13.804688 -23.0625 13.804688 -19.433594 C 14.019531 -18.136719 14.941406 -17.539062 16.402344 -17.539062 C 18.082031 -17.539062 19.054688 -18.296875 19.054688 -19.707031 C 19.054688 -26.09375 16.292969 -30.316406 10.882812 -30.316406 C 5.902344 -30.316406 1.625 -24.414062 1.625 -15.429688 C 1.625 -5.792969 5.46875 -0.109375 10.339844 -0.109375 Z M 10.339844 -0.109375 "/></g></g></g><g fill="#bc1823" fill-opacity="1"><g transform="translate(163.056698, 260.069648)"><g><path d="M 16.402344 0 C 17.757812 0 18.621094 -0.648438 18.621094 -1.679688 C 18.621094 -1.894531 18.621094 -2.21875 18.515625 -2.597656 C 18.351562 -2.976562 18.082031 -7.144531 18.082031 -15.429688 C 18.460938 -25.226562 16.890625 -30.261719 9.746094 -30.261719 C 4.546875 -30.261719 1.894531 -26.851562 1.894531 -22.195312 C 1.894531 -20.84375 2.871094 -20.03125 4.546875 -20.03125 C 5.953125 -20.03125 7.089844 -20.625 7.089844 -21.925781 C 7.089844 -23.820312 7.851562 -25.875 9.746094 -25.875 C 12.289062 -25.875 13.210938 -23.0625 13.210938 -17.648438 C 12.398438 -18.082031 11.152344 -19 9.09375 -19 C 5.089844 -19 1.625 -15.429688 1.625 -9.417969 C 1.625 -3.464844 4.222656 -0.109375 8.769531 -0.109375 C 10.175781 -0.109375 12.453125 -0.59375 13.425781 -1.460938 C 13.859375 -0.378906 14.617188 0 16.402344 0 Z M 9.691406 -4.65625 C 7.472656 -4.65625 6.332031 -6.710938 6.332031 -9.636719 C 6.332031 -12.503906 7.417969 -14.617188 9.851562 -14.617188 C 11.855469 -14.617188 12.398438 -12.453125 12.398438 -9.746094 C 12.398438 -6.660156 11.855469 -4.65625 9.691406 -4.65625 Z M 9.691406 -4.65625 "/></g></g></g><g fill="#bc1823" fill-opacity="1"><g transform="translate(183.302711, 260.069648)"><g><path d="M 4.546875 -33.292969 C 5.359375 -33.292969 6.171875 -33.511719 6.550781 -33.941406 C 7.039062 -34.429688 7.253906 -35.1875 7.253906 -35.835938 C 7.253906 -36.488281 7.089844 -37.136719 6.710938 -37.625 C 5.738281 -38.816406 4.816406 -39.140625 4.058594 -39.140625 C 3.464844 -39.140625 2.921875 -38.871094 2.492188 -38.597656 C 1.949219 -38.21875 1.570312 -37.355469 1.570312 -36.488281 C 1.570312 -35.785156 1.785156 -35.027344 2.164062 -34.320312 C 2.652344 -33.5625 3.628906 -33.292969 4.546875 -33.292969 Z M 4.546875 0 C 7.199219 0 7.363281 -1.40625 7.363281 -2.816406 C 7.363281 -2.816406 7.363281 -4.765625 7.253906 -5.847656 C 7.253906 -7.308594 7.199219 -8.714844 7.199219 -10.015625 L 7.253906 -14.347656 L 7.253906 -22.628906 C 7.253906 -24.253906 7.472656 -26.363281 7.472656 -28.097656 C 7.472656 -29.125 7.199219 -30.425781 4.4375 -30.425781 C 1.730469 -30.425781 1.625 -28.910156 1.625 -27.554688 C 1.625 -25.984375 1.839844 -24.089844 1.839844 -22.628906 C 1.894531 -18.839844 1.894531 -16.292969 1.894531 -12.9375 C 1.894531 -10.71875 1.894531 -8.390625 1.839844 -5.847656 C 1.785156 -4.765625 1.785156 -2.816406 1.785156 -2.816406 C 1.785156 -0.972656 2.761719 0 4.546875 0 Z M 4.546875 0 "/></g></g></g><g fill="#bc1823" fill-opacity="1"><g transform="translate(192.397179, 260.069648)"><g><path d="M 3.84375 0.433594 C 5.144531 0.433594 5.953125 -0.757812 6.332031 -1.460938 C 6.765625 -2.328125 8.28125 -6.710938 9.417969 -8.988281 C 9.527344 -9.203125 9.636719 -9.417969 9.746094 -9.417969 C 9.851562 -9.417969 9.960938 -9.203125 10.070312 -8.988281 C 11.207031 -6.710938 12.722656 -2.328125 13.15625 -1.460938 C 13.535156 -0.757812 14.347656 0.433594 15.644531 0.433594 C 17.324219 0.433594 18.730469 -0.488281 18.894531 -1.460938 C 19.054688 -2.328125 18.296875 -3.574219 16.945312 -6.226562 L 13.046875 -13.914062 C 12.722656 -14.726562 12.9375 -15.265625 13.15625 -15.753906 L 16.621094 -23.65625 C 17.863281 -26.363281 18.570312 -27.664062 18.351562 -28.476562 C 18.136719 -29.449219 16.671875 -30.316406 14.996094 -30.207031 C 13.695312 -30.152344 12.9375 -28.910156 12.613281 -28.203125 C 12.234375 -27.285156 11.042969 -22.84375 10.015625 -20.515625 C 9.851562 -20.085938 9.691406 -20.03125 9.472656 -20.515625 C 8.445312 -22.84375 7.253906 -27.285156 6.875 -28.203125 C 6.550781 -28.910156 5.792969 -30.152344 4.492188 -30.207031 C 2.816406 -30.316406 1.351562 -29.449219 1.136719 -28.476562 C 0.921875 -27.664062 1.625 -26.363281 2.816406 -23.65625 L 6.332031 -15.753906 C 6.496094 -15.265625 6.765625 -14.726562 6.441406 -13.914062 L 2.542969 -6.226562 C 1.191406 -3.574219 0.433594 -2.328125 0.59375 -1.460938 C 0.757812 -0.488281 2.164062 0.433594 3.84375 0.433594 Z M 3.84375 0.433594 "/></g></g></g><g fill="#bc1823" fill-opacity="1"><g transform="translate(211.831188, 260.069648)"><g><path d="M 16.402344 0 C 17.757812 0 18.621094 -0.648438 18.621094 -1.679688 C 18.621094 -1.894531 18.621094 -2.21875 18.515625 -2.597656 C 18.351562 -2.976562 18.082031 -7.144531 18.082031 -15.429688 C 18.460938 -25.226562 16.890625 -30.261719 9.746094 -30.261719 C 4.546875 -30.261719 1.894531 -26.851562 1.894531 -22.195312 C 1.894531 -20.84375 2.871094 -20.03125 4.546875 -20.03125 C 5.953125 -20.03125 7.089844 -20.625 7.089844 -21.925781 C 7.089844 -23.820312 7.851562 -25.875 9.746094 -25.875 C 12.289062 -25.875 13.210938 -23.0625 13.210938 -17.648438 C 12.398438 -18.082031 11.152344 -19 9.09375 -19 C 5.089844 -19 1.625 -15.429688 1.625 -9.417969 C 1.625 -3.464844 4.222656 -0.109375 8.769531 -0.109375 C 10.175781 -0.109375 12.453125 -0.59375 13.425781 -1.460938 C 13.859375 -0.378906 14.617188 0 16.402344 0 Z M 9.691406 -4.65625 C 7.472656 -4.65625 6.332031 -6.710938 6.332031 -9.636719 C 6.332031 -12.503906 7.417969 -14.617188 9.851562 -14.617188 C 11.855469 -14.617188 12.398438 -12.453125 12.398438 -9.746094 C 12.398438 -6.660156 11.855469 -4.65625 9.691406 -4.65625 Z M 9.691406 -4.65625 "/></g></g></g></svg>