<svg xmlns="http://www.w3.org/2000/svg" xmlns:xlink="http://www.w3.org/1999/xlink" width="500" zoomAndPan="magnify" viewBox="0 0 375 374.999991" height="500" preserveAspectRatio="xMidYMid meet" version="1.0"><defs><g/><clipPath id="a0296e7a3a"><path d="M 73 117 L 175 117 L 175 259 L 73 259 Z M 73 117 " clip-rule="nonzero"/></clipPath><clipPath id="9e63313495"><path d="M 82.09375 108.957031 L 189.335938 121.746094 L 172.105469 266.222656 L 64.863281 253.433594 Z M 82.09375 108.957031 " clip-rule="nonzero"/></clipPath><clipPath id="45d22a5544"><path d="M 82.09375 108.957031 L 189.335938 121.746094 L 172.105469 266.222656 L 64.863281 253.433594 Z M 82.09375 108.957031 " clip-rule="nonzero"/></clipPath><clipPath id="deca16bbaa"><path d="M 138 199 L 166 199 L 166 245 L 138 245 Z M 138 199 " clip-rule="nonzero"/></clipPath><clipPath id="8531c49da5"><path d="M 82.09375 108.957031 L 189.335938 121.746094 L 172.105469 266.222656 L 64.863281 253.433594 Z M 82.09375 108.957031 " clip-rule="nonzero"/></clipPath><clipPath id="69a20b5e36"><path d="M 82.09375 108.957031 L 189.335938 121.746094 L 172.105469 266.222656 L 64.863281 253.433594 Z M 82.09375 108.957031 " clip-rule="nonzero"/></clipPath></defs><g clip-path="url(#a0296e7a3a)"><g clip-path="url(#9e63313495)"><g clip-path="url(#45d22a5544)"><path fill="#ffa500" d="M 171.0625 229.554688 C 155.679688 272.875 85.492188 264.269531 74.871094 220.679688 C 65.648438 182.980469 111.152344 136.714844 129.210938 120.160156 C 133.011719 116.675781 138.996094 117.386719 141.902344 121.675781 C 154.101562 139.796875 185.605469 188.617188 171.0625 229.554688 Z M 171.0625 229.554688 " fill-opacity="1" fill-rule="nonzero"/></g></g></g><g clip-path="url(#deca16bbaa)"><g clip-path="url(#8531c49da5)"><g clip-path="url(#69a20b5e36)"><path fill="#ffa500" d="M 162.753906 199.144531 C 163.722656 199.085938 167.292969 210.019531 164.070312 221.863281 C 163.089844 225.453125 160.9375 232.960938 153.695312 238.632812 C 147.933594 243.140625 141.847656 244.226562 138.980469 244.527344 C 145.605469 241.347656 153.21875 236.269531 157.933594 227.816406 C 165.476562 214.238281 161.605469 199.210938 162.753906 199.144531 Z M 162.753906 199.144531 " fill-opacity="1" fill-rule="nonzero"/></g></g></g><g fill="#ffffff" fill-opacity="1"><g transform="translate(148.119339, 228.370989)"><g><path d="M 9.515625 -0.101562 C 14.699219 -0.101562 17.140625 -3.386719 17.140625 -8.917969 C 17.140625 -9.914062 16.191406 -10.613281 14.898438 -10.613281 C 13.949219 -10.613281 12.554688 -10.613281 12.554688 -8.820312 C 12.554688 -6.179688 11.308594 -4.183594 9.863281 -4.183594 C 7.175781 -4.183594 6.226562 -8.71875 6.226562 -14.546875 C 6.226562 -19.929688 7.722656 -23.867188 10.113281 -23.867188 C 11.90625 -23.867188 12.707031 -21.226562 12.707031 -17.886719 C 12.90625 -16.691406 13.75 -16.144531 15.097656 -16.144531 C 16.640625 -16.144531 17.539062 -16.839844 17.539062 -18.136719 C 17.539062 -24.015625 14.996094 -27.902344 10.015625 -27.902344 C 5.429688 -27.902344 1.496094 -22.472656 1.496094 -14.199219 C 1.496094 -5.332031 5.03125 -0.101562 9.515625 -0.101562 Z M 9.515625 -0.101562 "/></g></g></g><g fill="#ffffff" fill-opacity="1"><g transform="translate(166.653745, 228.370989)"><g><path d="M 15.097656 0 C 16.34375 0 17.140625 -0.597656 17.140625 -1.542969 C 17.140625 -1.742188 17.140625 -2.042969 17.039062 -2.390625 C 16.890625 -2.742188 16.640625 -6.578125 16.640625 -14.199219 C 16.988281 -23.21875 15.546875 -27.851562 8.96875 -27.851562 C 4.183594 -27.851562 1.742188 -24.710938 1.742188 -20.429688 C 1.742188 -19.183594 2.640625 -18.433594 4.183594 -18.433594 C 5.480469 -18.433594 6.527344 -18.984375 6.527344 -20.179688 C 6.527344 -21.921875 7.222656 -23.816406 8.96875 -23.816406 C 11.308594 -23.816406 12.15625 -21.226562 12.15625 -16.242188 C 11.410156 -16.640625 10.265625 -17.488281 8.371094 -17.488281 C 4.683594 -17.488281 1.496094 -14.199219 1.496094 -8.667969 C 1.496094 -3.1875 3.886719 -0.101562 8.070312 -0.101562 C 9.367188 -0.101562 11.460938 -0.546875 12.355469 -1.34375 C 12.753906 -0.347656 13.453125 0 15.097656 0 Z M 8.917969 -4.285156 C 6.875 -4.285156 5.828125 -6.179688 5.828125 -8.867188 C 5.828125 -11.507812 6.824219 -13.453125 9.066406 -13.453125 C 10.910156 -13.453125 11.410156 -11.460938 11.410156 -8.96875 C 11.410156 -6.128906 10.910156 -4.285156 8.917969 -4.285156 Z M 8.917969 -4.285156 "/></g></g></g><g fill="#ffffff" fill-opacity="1"><g transform="translate(185.287797, 228.370989)"><g><path d="M 4.183594 -30.640625 C 4.933594 -30.640625 5.679688 -30.839844 6.027344 -31.238281 C 6.476562 -31.6875 6.675781 -32.386719 6.675781 -32.984375 C 6.675781 -33.582031 6.527344 -34.179688 6.179688 -34.628906 C 5.28125 -35.722656 4.433594 -36.023438 3.738281 -36.023438 C 3.1875 -36.023438 2.691406 -35.773438 2.292969 -35.523438 C 1.792969 -35.175781 1.445312 -34.378906 1.445312 -33.582031 C 1.445312 -32.933594 1.644531 -32.238281 1.992188 -31.589844 C 2.441406 -30.890625 3.339844 -30.640625 4.183594 -30.640625 Z M 4.183594 0 C 6.625 0 6.777344 -1.296875 6.777344 -2.589844 C 6.777344 -2.589844 6.777344 -4.382812 6.675781 -5.382812 C 6.675781 -6.726562 6.625 -8.023438 6.625 -9.21875 L 6.675781 -13.203125 L 6.675781 -20.828125 C 6.675781 -22.320312 6.875 -24.265625 6.875 -25.859375 C 6.875 -26.804688 6.625 -28 4.085938 -28 C 1.59375 -28 1.496094 -26.605469 1.496094 -25.359375 C 1.496094 -23.914062 1.695312 -22.171875 1.695312 -20.828125 C 1.742188 -17.339844 1.742188 -14.996094 1.742188 -11.90625 C 1.742188 -9.863281 1.742188 -7.722656 1.695312 -5.382812 C 1.644531 -4.382812 1.644531 -2.589844 1.644531 -2.589844 C 1.644531 -0.898438 2.542969 0 4.183594 0 Z M 4.183594 0 "/></g></g></g><g fill="#ffffff" fill-opacity="1"><g transform="translate(193.658174, 228.370989)"><g><path d="M 3.539062 0.398438 C 4.734375 0.398438 5.480469 -0.699219 5.828125 -1.34375 C 6.226562 -2.140625 7.625 -6.179688 8.667969 -8.269531 C 8.769531 -8.46875 8.867188 -8.667969 8.96875 -8.667969 C 9.066406 -8.667969 9.167969 -8.46875 9.265625 -8.269531 C 10.3125 -6.179688 11.707031 -2.140625 12.105469 -1.34375 C 12.457031 -0.699219 13.203125 0.398438 14.398438 0.398438 C 15.945312 0.398438 17.238281 -0.449219 17.390625 -1.34375 C 17.539062 -2.140625 16.839844 -3.289062 15.59375 -5.730469 L 12.007812 -12.804688 C 11.707031 -13.550781 11.90625 -14.050781 12.105469 -14.5 L 15.296875 -21.773438 C 16.441406 -24.265625 17.089844 -25.460938 16.890625 -26.207031 C 16.691406 -27.105469 15.347656 -27.902344 13.800781 -27.800781 C 12.605469 -27.753906 11.90625 -26.605469 11.609375 -25.957031 C 11.261719 -25.113281 10.164062 -21.027344 9.21875 -18.882812 C 9.066406 -18.484375 8.917969 -18.433594 8.71875 -18.882812 C 7.773438 -21.027344 6.675781 -25.113281 6.328125 -25.957031 C 6.027344 -26.605469 5.332031 -27.753906 4.136719 -27.800781 C 2.589844 -27.902344 1.246094 -27.105469 1.046875 -26.207031 C 0.847656 -25.460938 1.496094 -24.265625 2.589844 -21.773438 L 5.828125 -14.5 C 5.980469 -14.050781 6.226562 -13.550781 5.929688 -12.804688 L 2.339844 -5.730469 C 1.097656 -3.289062 0.398438 -2.140625 0.546875 -1.34375 C 0.699219 -0.449219 1.992188 0.398438 3.539062 0.398438 Z M 3.539062 0.398438 "/></g></g></g><g fill="#ffffff" fill-opacity="1"><g transform="translate(211.544871, 228.370989)"><g><path d="M 15.097656 0 C 16.34375 0 17.140625 -0.597656 17.140625 -1.542969 C 17.140625 -1.742188 17.140625 -2.042969 17.039062 -2.390625 C 16.890625 -2.742188 16.640625 -6.578125 16.640625 -14.199219 C 16.988281 -23.21875 15.546875 -27.851562 8.96875 -27.851562 C 4.183594 -27.851562 1.742188 -24.710938 1.742188 -20.429688 C 1.742188 -19.183594 2.640625 -18.433594 4.183594 -18.433594 C 5.480469 -18.433594 6.527344 -18.984375 6.527344 -20.179688 C 6.527344 -21.921875 7.222656 -23.816406 8.96875 -23.816406 C 11.308594 -23.816406 12.15625 -21.226562 12.15625 -16.242188 C 11.410156 -16.640625 10.265625 -17.488281 8.371094 -17.488281 C 4.683594 -17.488281 1.496094 -14.199219 1.496094 -8.667969 C 1.496094 -3.1875 3.886719 -0.101562 8.070312 -0.101562 C 9.367188 -0.101562 11.460938 -0.546875 12.355469 -1.34375 C 12.753906 -0.347656 13.453125 0 15.097656 0 Z M 8.917969 -4.285156 C 6.875 -4.285156 5.828125 -6.179688 5.828125 -8.867188 C 5.828125 -11.507812 6.824219 -13.453125 9.066406 -13.453125 C 10.910156 -13.453125 11.410156 -11.460938 11.410156 -8.96875 C 11.410156 -6.128906 10.910156 -4.285156 8.917969 -4.285156 Z M 8.917969 -4.285156 "/></g></g></g><g fill="#ffffff" fill-opacity="1"><g transform="translate(129.454102, 186.00729)"><g><path d="M 6.199219 0.316406 C 12.996094 0.316406 14.90625 -6.398438 14.90625 -12.757812 C 14.90625 -19.875 11.726562 -28.5 6.042969 -28.5 C 3.019531 -28.5 1.191406 -28.261719 1.191406 -25.320312 C 1.191406 -23.929688 1.351562 -22.378906 1.351562 -21.105469 C 1.390625 -17.570312 1.429688 -14.546875 1.429688 -11.40625 C 1.429688 -9.339844 1.390625 -7.195312 1.351562 -4.808594 C 1.3125 -3.777344 1.3125 -1.988281 1.3125 -1.988281 C 1.3125 -0.636719 1.867188 -0.398438 3.0625 -0.0390625 C 4.253906 0.316406 4.769531 0.316406 6.199219 0.316406 Z M 6.996094 -3.496094 C 5.761719 -3.496094 5.246094 -4.253906 5.246094 -5.328125 L 5.246094 -22.058594 C 5.246094 -24.007812 5.285156 -24.921875 6.28125 -24.921875 C 8.1875 -24.921875 11.050781 -20.074219 11.050781 -12.558594 C 11.050781 -7.113281 9.421875 -3.496094 6.996094 -3.496094 Z M 6.996094 -3.496094 "/></g></g></g><g fill="#ffffff" fill-opacity="1"><g transform="translate(145.392025, 186.00729)"><g><path d="M 11.566406 -6.042969 C 10.53125 -6.28125 9.617188 -6.082031 9.378906 -5.128906 C 9.222656 -4.453125 8.546875 -3.339844 7.433594 -3.339844 C 6.320312 -3.339844 5.328125 -5.84375 5.046875 -9.378906 C 6.917969 -9.140625 9.5 -9.140625 10.613281 -9.339844 C 12.640625 -9.738281 13.195312 -10.890625 13.195312 -12.519531 C 13.195312 -19.355469 11.167969 -22.257812 7.589844 -22.257812 C 3.933594 -22.257812 1.191406 -17.925781 1.191406 -11.328125 C 1.191406 -4.253906 3.019531 -0.078125 7.195312 -0.078125 C 10.613281 -0.078125 12.402344 -2.105469 12.917969 -4.054688 C 13.195312 -5.046875 12.757812 -5.761719 11.566406 -6.042969 Z M 7.394531 -19.039062 C 8.746094 -19.039062 9.421875 -17.210938 9.617188 -15.144531 C 9.855469 -12.558594 9.261719 -12.519531 8.664062 -12.441406 C 7.832031 -12.363281 6.082031 -12.402344 4.96875 -12.480469 C 5.128906 -16.335938 6.199219 -19.039062 7.394531 -19.039062 Z M 7.394531 -19.039062 "/></g></g></g><g fill="#ffffff" fill-opacity="1"><g transform="translate(159.779876, 186.00729)"><g><path d="M 3.339844 0.359375 C 5.207031 0.359375 5.328125 -0.636719 5.328125 -1.988281 C 5.328125 -1.988281 5.328125 -3.777344 5.285156 -4.808594 C 5.246094 -6.160156 5.246094 -7.433594 5.207031 -8.664062 L 5.246094 -13.355469 L 5.285156 -21.105469 C 5.285156 -22.65625 5.445312 -24.605469 5.445312 -26.195312 C 5.445312 -27.226562 5.246094 -28.101562 3.21875 -28.101562 C 1.273438 -28.101562 1.191406 -26.988281 1.191406 -25.714844 C 1.191406 -24.246094 1.351562 -22.496094 1.351562 -21.105469 C 1.390625 -17.570312 1.429688 -14.546875 1.429688 -11.40625 C 1.429688 -9.339844 1.390625 -7.195312 1.351562 -4.808594 C 1.3125 -3.777344 1.3125 -1.988281 1.3125 -1.988281 C 1.3125 -0.636719 1.789062 0.359375 3.339844 0.359375 Z M 3.339844 0.359375 "/></g></g></g><g fill="#ffffff" fill-opacity="1"><g transform="translate(166.417365, 186.00729)"><g><path d="M 3.339844 -23.929688 C 3.894531 -23.929688 4.570312 -24.167969 4.96875 -24.484375 C 5.523438 -24.921875 7.273438 -26.988281 8.109375 -28.140625 C 8.308594 -28.417969 8.386719 -28.65625 8.386719 -28.898438 C 8.386719 -29.53125 7.589844 -29.8125 6.796875 -29.8125 C 5.761719 -29.8125 4.96875 -29.96875 4.214844 -28.617188 C 3.457031 -27.304688 3.257812 -27.066406 2.941406 -26.433594 C 2.582031 -25.835938 2.386719 -25.238281 2.386719 -24.761719 C 2.386719 -24.445312 2.503906 -24.167969 2.742188 -24.046875 C 2.902344 -23.96875 3.101562 -23.929688 3.339844 -23.929688 Z M 3.339844 0 C 5.285156 0 5.40625 -1.035156 5.40625 -2.066406 C 5.40625 -2.066406 5.40625 -3.496094 5.328125 -4.292969 C 5.328125 -5.367188 5.285156 -6.398438 5.285156 -7.351562 L 5.328125 -10.53125 L 5.328125 -16.613281 C 5.328125 -17.808594 5.484375 -19.355469 5.484375 -20.628906 C 5.484375 -21.382812 5.285156 -22.339844 3.257812 -22.339844 C 1.273438 -22.339844 1.191406 -21.226562 1.191406 -20.230469 C 1.191406 -19.078125 1.351562 -17.6875 1.351562 -16.613281 C 1.390625 -13.832031 1.390625 -11.964844 1.390625 -9.5 C 1.390625 -7.871094 1.390625 -6.160156 1.351562 -4.292969 C 1.3125 -3.496094 1.3125 -2.066406 1.3125 -2.066406 C 1.3125 -0.714844 2.027344 0 3.339844 0 Z M 3.339844 0 "/></g></g></g><g fill="#ffffff" fill-opacity="1"><g transform="translate(173.094599, 186.00729)"><g><path d="M 7.589844 -0.078125 C 11.726562 -0.078125 13.671875 -2.703125 13.671875 -7.113281 C 13.671875 -7.910156 12.917969 -8.464844 11.882812 -8.464844 C 11.128906 -8.464844 10.015625 -8.464844 10.015625 -7.035156 C 10.015625 -4.929688 9.023438 -3.339844 7.871094 -3.339844 C 5.722656 -3.339844 4.96875 -6.957031 4.96875 -11.605469 C 4.96875 -15.898438 6.160156 -19.039062 8.070312 -19.039062 C 9.5 -19.039062 10.136719 -16.933594 10.136719 -14.269531 C 10.292969 -13.316406 10.96875 -12.878906 12.042969 -12.878906 C 13.277344 -12.878906 13.992188 -13.433594 13.992188 -14.46875 C 13.992188 -19.160156 11.964844 -22.257812 7.988281 -22.257812 C 4.332031 -22.257812 1.191406 -17.925781 1.191406 -11.328125 C 1.191406 -4.253906 4.015625 -0.078125 7.589844 -0.078125 Z M 7.589844 -0.078125 "/></g></g></g><g fill="#ffffff" fill-opacity="1"><g transform="translate(187.879905, 186.00729)"><g><path d="M 3.339844 -24.445312 C 3.933594 -24.445312 4.53125 -24.605469 4.808594 -24.921875 C 5.167969 -25.28125 5.328125 -25.835938 5.328125 -26.3125 C 5.328125 -26.789062 5.207031 -27.265625 4.929688 -27.625 C 4.214844 -28.5 3.539062 -28.738281 2.980469 -28.738281 C 2.542969 -28.738281 2.144531 -28.539062 1.828125 -28.339844 C 1.429688 -28.0625 1.152344 -27.425781 1.152344 -26.789062 C 1.152344 -26.273438 1.3125 -25.714844 1.589844 -25.199219 C 1.949219 -24.644531 2.664062 -24.445312 3.339844 -24.445312 Z M 3.339844 0 C 5.285156 0 5.40625 -1.035156 5.40625 -2.066406 C 5.40625 -2.066406 5.40625 -3.496094 5.328125 -4.292969 C 5.328125 -5.367188 5.285156 -6.398438 5.285156 -7.351562 L 5.328125 -10.53125 L 5.328125 -16.613281 C 5.328125 -17.808594 5.484375 -19.355469 5.484375 -20.628906 C 5.484375 -21.382812 5.285156 -22.339844 3.257812 -22.339844 C 1.273438 -22.339844 1.191406 -21.226562 1.191406 -20.230469 C 1.191406 -19.078125 1.351562 -17.6875 1.351562 -16.613281 C 1.390625 -13.832031 1.390625 -11.964844 1.390625 -9.5 C 1.390625 -7.871094 1.390625 -6.160156 1.351562 -4.292969 C 1.3125 -3.496094 1.3125 -2.066406 1.3125 -2.066406 C 1.3125 -0.714844 2.027344 0 3.339844 0 Z M 3.339844 0 "/></g></g></g><g fill="#ffffff" fill-opacity="1"><g transform="translate(194.557138, 186.00729)"><g><path d="M 12.042969 0 C 13.039062 0 13.671875 -0.476562 13.671875 -1.230469 C 13.671875 -1.390625 13.671875 -1.628906 13.59375 -1.90625 C 13.472656 -2.1875 13.277344 -5.246094 13.277344 -11.328125 C 13.554688 -18.523438 12.402344 -22.21875 7.15625 -22.21875 C 3.339844 -22.21875 1.390625 -19.714844 1.390625 -16.296875 C 1.390625 -15.304688 2.105469 -14.707031 3.339844 -14.707031 C 4.371094 -14.707031 5.207031 -15.144531 5.207031 -16.097656 C 5.207031 -17.488281 5.761719 -19 7.15625 -19 C 9.023438 -19 9.699219 -16.933594 9.699219 -12.957031 C 9.101562 -13.277344 8.1875 -13.953125 6.675781 -13.953125 C 3.734375 -13.953125 1.191406 -11.328125 1.191406 -6.917969 C 1.191406 -2.542969 3.101562 -0.078125 6.4375 -0.078125 C 7.472656 -0.078125 9.140625 -0.4375 9.855469 -1.074219 C 10.175781 -0.277344 10.730469 0 12.042969 0 Z M 7.113281 -3.417969 C 5.484375 -3.417969 4.652344 -4.929688 4.652344 -7.074219 C 4.652344 -9.183594 5.445312 -10.730469 7.234375 -10.730469 C 8.703125 -10.730469 9.101562 -9.140625 9.101562 -7.15625 C 9.101562 -4.890625 8.703125 -3.417969 7.113281 -3.417969 Z M 7.113281 -3.417969 "/></g></g></g><g fill="#ffffff" fill-opacity="1"><g transform="translate(209.421933, 186.00729)"><g/></g></g><g fill="#ffffff" fill-opacity="1"><g transform="translate(218.165931, 186.00729)"><g><path d="M 3.417969 0.0390625 C 4.730469 0.0390625 5.128906 -0.675781 5.128906 -2.304688 C 5.007812 -5.207031 4.929688 -8.546875 4.929688 -10.375 C 4.929688 -16.613281 6 -19.078125 8.070312 -19.078125 C 10.375 -19.078125 10.890625 -15.699219 10.8125 -10.375 C 10.773438 -7.871094 10.8125 -3.777344 10.8125 -2.066406 C 10.8125 -0.277344 11.605469 0.0390625 12.917969 0.0390625 C 14.507812 0.0390625 14.945312 -0.675781 14.90625 -2.304688 C 14.867188 -4.171875 14.628906 -10.53125 14.628906 -12.28125 C 14.628906 -18.761719 12.957031 -22.257812 8.664062 -22.257812 C 7.15625 -22.257812 5.40625 -21.34375 4.847656 -20.429688 C 4.53125 -21.503906 3.855469 -22.378906 2.542969 -22.378906 C 1.550781 -22.378906 0.875 -21.902344 0.914062 -21.144531 L 1.035156 -18.441406 C 1.074219 -16.613281 1.113281 -14.824219 1.113281 -13.234375 C 1.113281 -10.890625 1.035156 -8.148438 1.035156 -4.492188 C 0.992188 -3.457031 1.035156 -2.066406 1.035156 -2.066406 C 1.035156 -0.277344 1.828125 0.0390625 3.417969 0.0390625 Z M 3.417969 0.0390625 "/></g></g></g><g fill="#ffffff" fill-opacity="1"><g transform="translate(233.984618, 186.00729)"><g><path d="M 12.042969 0 C 13.039062 0 13.671875 -0.476562 13.671875 -1.230469 C 13.671875 -1.390625 13.671875 -1.628906 13.59375 -1.90625 C 13.472656 -2.1875 13.277344 -5.246094 13.277344 -11.328125 C 13.554688 -18.523438 12.402344 -22.21875 7.15625 -22.21875 C 3.339844 -22.21875 1.390625 -19.714844 1.390625 -16.296875 C 1.390625 -15.304688 2.105469 -14.707031 3.339844 -14.707031 C 4.371094 -14.707031 5.207031 -15.144531 5.207031 -16.097656 C 5.207031 -17.488281 5.761719 -19 7.15625 -19 C 9.023438 -19 9.699219 -16.933594 9.699219 -12.957031 C 9.101562 -13.277344 8.1875 -13.953125 6.675781 -13.953125 C 3.734375 -13.953125 1.191406 -11.328125 1.191406 -6.917969 C 1.191406 -2.542969 3.101562 -0.078125 6.4375 -0.078125 C 7.472656 -0.078125 9.140625 -0.4375 9.855469 -1.074219 C 10.175781 -0.277344 10.730469 0 12.042969 0 Z M 7.113281 -3.417969 C 5.484375 -3.417969 4.652344 -4.929688 4.652344 -7.074219 C 4.652344 -9.183594 5.445312 -10.730469 7.234375 -10.730469 C 8.703125 -10.730469 9.101562 -9.140625 9.101562 -7.15625 C 9.101562 -4.890625 8.703125 -3.417969 7.113281 -3.417969 Z M 7.113281 -3.417969 "/></g></g></g></svg>